# xmcd
#
# Track frame offsets:
#	150
#	13672
#	27713
#	41381
#	56299
#	66399
#	79330
#	93318
#	107815
#	121675
#	136642
#	150146
#	164242
#	178290
#	191934
#	205769
#	220012
#	233106
#	244721
#	259416
#
# Disc length: 3624 seconds
#
# Revision: 1
# Processed by: cddbd v1.5.1PL0 Copyright (c) Steve Scherf et al.
# Submitted via: audiograbber 1.83.01
#
DISCID=170e2614
DTITLE=Various Artist - The Fabulous 40's Collection Volume 3
DYEAR=1900
DGENRE=Jazz
TTITLE0=Frank Sinatra - All or Nothing
TTITLE1=Jo Stafford - I'll Be With You in Apple Blossom Time
TTITLE2=Nat King Cole - Get Your Kicks on Rt 66
TTITLE3=Doris Day - My Dreams are Getting Better
TTITLE4=Hoagy Carmichael - Old Buttermilk Sky
TTITLE5=Judy Garland - The Trolley Song
TTITLE6=Mario Lanza - The Loveliest Night of the Year
TTITLE7=Helen Forrest and Dick Haymes - It Had to be You
TTITLE8=Dorothy Squires - Danger Ahead
TTITLE9=Noel Coward - London Pride
TTITLE10=Spike Jones - Cocktails for Two
TTITLE11=Jo Stafford - Fools Rush In
TTITLE12=Louis Jordan - Ain't Nobody Here but Us Chickens
TTITLE13=Nellie Lutcher - He's a Real Gone Guy
TTITLE14=Artie Shaw - Frensei
TTITLE15=Alfred Drake - The Surrey with the Fringe on Top
TTITLE16=Ella Mae Morse - House of Blue Lights
TTITLE17=Bing Crosby - You Are My Sunshine
TTITLE18=Duke Ellington - Don't Get Around Much Anymore
TTITLE19=Hutch - You'd Be So Nice to Come Home To
EXTD=
EXTT0=
EXTT1=
EXTT2=
EXTT3=
EXTT4=
EXTT5=
EXTT6=
EXTT7=
EXTT8=
EXTT9=
EXTT10=
EXTT11=
EXTT12=
EXTT13=
EXTT14=
EXTT15=
EXTT16=
EXTT17=
EXTT18=
EXTT19=
PLAYORDER=
